Coordinates
version=1
nRows=19
nColumns=33
inDegrees=yes

Units are S.I. units (second, meters, Newtons, ...)
Angles are in degrees.

endheader
time	ground_thorax_rot_x	ground_thorax_rot_y	ground_thorax_rot_z	ground_thorax_tx	ground_thorax_ty	ground_thorax_tz	clav_prot_r	clav_elev_r	scapula_abduction_r	scapula_elevation_r	scapula_upward_rot_r	scapula_winging_r	shoulder_elv_r	plane_of_elev_r	axial_rot_r	elbow_flexion_r	pro_sup_r	wrist_flex_r	wrist_dev_r	clav_prot_l	clav_elev_l	scapula_abduction_l	scapula_elevation_l	scapula_upward_rot_l	scapula_winging_l	shoulder_elv_l	plane_of_elev_l	axial_rot_l	elbow_flexion_l	pro_sup_l	wrist_flex_l	wrist_dev_l
      0.81000000	      5.28650849	     -9.59481517	      9.62364738	     -0.11702132	      1.03532341	      0.01533233	      2.39680741	     -7.52897091	      4.52891060	     -1.15140438	      1.00838986	     -0.11434427	     31.77716129	     10.81648943	     17.40939860	     52.62469372	     46.46544428	      7.99732057	     21.62834879	      1.81933171	    -17.16139920	      1.83820239	      2.43090230	    -19.87924063	     -7.73545428	     51.72685075	      2.71335693	     -3.46785002	     61.12906896	     40.28803295	     11.09869975	     -4.81680261
      0.82000000	      4.80434931	     -9.97413961	      9.65133919	     -0.11763581	      1.03508284	      0.01462649	      3.55338076	     -8.21738193	      6.24531737	     -1.43239201	      0.20753839	     -0.33951086	     32.75578439	     10.39268064	     16.76999336	     52.50991534	     45.76142636	      9.35759342	     18.54617864	      1.94165293	    -15.80122816	      1.34711523	      1.59354866	    -18.73615745	     -6.93907363	     50.25818136	      3.56149796	     -2.53790991	     60.67624076	     41.47151312	     12.20987828	     -7.25925006
      0.83000000	      4.79734700	     -9.94400512	      9.67717488	     -0.11740461	      1.03519413	      0.01466309	      3.56065411	     -8.23332321	      6.26494460	     -1.45243521	      0.21946368	     -0.33813602	     32.74493684	     10.43442907	     16.76806038	     52.52113575	     45.75868745	      9.35757366	     18.54541251	      1.94713014	    -15.81178941	      1.33902703	      1.60177464	    -18.74051106	     -6.94430959	     50.24688756	      3.56594375	     -2.55117035	     60.68609596	     41.47446173	     12.21064237	     -7.26383546
      0.84000000	      4.75791862	     -9.80952617	      9.50489853	     -0.11736443	      1.03524808	      0.01474499	      3.68190686	     -8.15377251	      6.51549854	     -1.41790682	      0.31641001	     -0.45812696	     32.78996816	     10.69069269	     16.66872671	     52.30418401	     45.66298440	      9.23125205	     18.55966761	      2.05214273	    -15.88122811	      1.10058081	      1.79427234	    -18.46583747	     -6.88449157	     50.26778428	      3.52524179	     -2.78032242	     60.71225376	     41.60639186	     12.23472286	     -7.37523774
      0.85000000	      4.75096712	     -9.78016312	      9.55598602	     -0.11708026	      1.03534076	      0.01472489	      3.68727077	     -8.18089715	      6.53976641	     -1.45292136	      0.33955033	     -0.45715401	     32.78369248	     10.75121152	     16.65946025	     52.31860578	     45.65867442	      9.23046097	     18.55635106	      2.05911735	    -15.90117778	      1.09010414	      1.80764452	    -18.47865514	     -6.89273251	     50.24127192	      3.54536547	     -2.79121743	     60.73061958	     41.60474558	     12.23430722	     -7.37999062
      0.86000000	      4.82599340	     -9.65674244	      9.54393809	     -0.11689400	      1.03541589	      0.01462942	      3.72176948	     -8.23102799	      6.65258454	     -1.54014859	      0.43722904	     -0.48721651	     32.91062562	     10.84616379	     16.61127055	     52.10864376	     45.64533866	      9.17467443	     18.55859367	      2.10472884	    -15.95391631	      1.01351247	      1.85859466	    -18.47769709	     -6.88837704	     50.12911224	      3.67521286	     -2.86760758	     60.83573110	     41.57532999	     12.23042214	     -7.41350674
      0.87000000	      4.83541551	     -9.63698568	      9.32218772	     -0.11700361	      1.03559395	      0.01471944	      3.87138865	     -8.30886458	      7.00308981	     -1.68013281	      0.60182946	     -0.58593316	     33.02749082	     11.19106244	     16.53724346	     51.77325380	     45.51167099	      9.02605808	     18.55045508	      2.21374817	    -15.99298010	      0.77046308	      2.00769380	    -18.22838698	     -6.81565481	     50.07205218	      3.89043818	     -2.86156644	     60.63075125	     41.44001368	     12.22050224	     -7.43161121
      0.88000000	      4.83423381	     -9.50921224	      9.37958763	     -0.11665209	      1.03564542	      0.01456722	      3.90608748	     -8.35776516	      7.09993297	     -1.75197573	      0.66602192	     -0.60632120	     33.09669227	     11.28655017	     16.48344525	     51.65038459	     45.48223407	      8.98287177	     18.54732301	      2.24140024	    -16.03367642	      0.72640255	      2.03993881	    -18.24377092	     -6.82091127	     49.94962551	      4.01445895	     -2.88519188	     60.76156626	     41.36796669	     12.20201785	     -7.46084963
      0.89000000	      4.79684134	     -9.48386262	      9.14556514	     -0.11677693	      1.03569568	      0.01460661	      4.10124333	     -8.46910837	      7.53938051	     -1.92597792	      0.84143619	     -0.72569821	     33.20933231	     11.71125971	     16.29797837	     51.20786520	     45.27637905	      8.78300167	     18.56035198	      2.36763735	    -16.00761424	      0.43856882	      2.14809874	    -17.94111110	     -6.70570613	     49.84626986	      4.33987773	     -2.83429658	     60.57806192	     40.96212654	     12.14313779	     -7.49180568
      0.90000000	      4.85406884	     -9.38194191	      9.25598705	     -0.11645697	      1.03582216	      0.01448396	      4.12872094	     -8.53881206	      7.63628959	     -2.02531229	      0.92483701	     -0.73811103	     33.28778421	     11.83644549	     16.20649363	     51.10004830	     45.24287203	      8.74105620	     18.55875242	      2.40991107	    -16.05384595	      0.37569589	      2.17328866	    -17.98049137	     -6.70617594	     49.69085227	      4.49606258	     -2.89847083	     60.75774176	     40.84877225	     12.11884474	     -7.53208203
      0.91000000	      4.69283263	     -9.42231015	      9.25659446	     -0.11704916	      1.03504369	      0.01432694	      5.05190962	     -8.27068522	      9.09119609	     -1.65804926	      0.67181790	     -1.29978986	     33.59155019	     12.45003920	     15.23264568	     50.73005009	     43.97898721	      8.16956313	     18.72314531	      2.87180792	    -15.27861565	     -0.65249075	      1.81069628	    -17.05103571	     -5.99878784	     48.63928676	      5.06070730	     -2.58866177	     60.26098948	     37.53841673	     11.42915656	     -7.71482555
      0.92000000	      4.74570145	     -9.29380897	      9.34847016	     -0.11673288	      1.03530588	      0.01421377	      5.06161949	     -8.38813139	      9.18117354	     -1.81945900	      0.79900559	     -1.29715574	     33.70829157	     12.62350152	     15.15011280	     50.59953928	     43.99569870	      8.14287866	     18.72423346	      2.90908663	    -15.40458066	     -0.70632213	      1.91674254	    -17.08654750	     -6.03674397	     48.51700431	      5.25864535	     -2.68081130	     60.45254778	     37.47945365	     11.39439976	     -7.74257503
      0.93000000	      4.73171662	     -9.23688487	      9.06159538	     -0.11667131	      1.03559808	      0.01418765	      5.12578432	     -8.61102815	      9.44424029	     -2.13473649	      1.06149476	     -1.32692964	     33.91060855	     13.11071732	     14.95627190	     50.26214336	     44.01419217	      8.06620695	     18.79949503	      2.96747339	    -15.57570282	     -0.85816591	      2.18617347	    -16.86629258	     -6.05102005	     48.55036397	      5.64427350	     -2.70177457	     60.45980251	     37.15124027	     11.24703723	     -7.72241298
      0.94000000	      4.78683864	     -9.11036675	      9.22449369	     -0.11638587	      1.03589309	      0.01410213	      5.13987720	     -8.72570394	      9.54948084	     -2.29942492	      1.20438927	     -1.33011048	     34.01517471	     13.31831801	     14.85281950	     50.14885813	     44.01794344	      8.03776590	     18.81411490	      3.01189881	    -15.68159377	     -0.92339644	      2.27042195	    -16.90505401	     -6.07740535	     48.40155593	      5.88391144	     -2.80585857	     60.71743338	     37.03509778	     11.20767029	     -7.76306927
      0.95000000	      4.72686867	     -9.09200781	      8.86110488	     -0.11622575	      1.03605524	      0.01409389	      5.23783347	     -8.90202618	      9.90221851	     -2.59965304	      1.53762296	     -1.40912524	     34.18686923	     13.95762647	     14.54970992	     49.85451003	     43.97534008	      7.94077642	     18.97336590	      3.08011000	    -15.73121291	     -1.11336346	      2.45399689	    -16.60824906	     -6.02463712	     48.39507018	      6.44844969	     -2.76343399	     60.83958488	     36.37912007	     10.99815699	     -7.75054991
      0.96000000	      4.80308073	     -8.96973983	      9.11661468	     -0.11604996	      1.03635335	      0.01395845	      5.24870041	     -9.00891081	     10.01062299	     -2.76393245	      1.69741391	     -1.41487517	     34.30473780	     14.17840854	     14.41029563	     49.76490866	     43.96920245	      7.90969726	     18.99118837	      3.12865500	    -15.83435499	     -1.18519620	      2.53667311	    -16.64608085	     -6.04930831	     48.21480450	      6.73621237	     -2.87517102	     61.14950872	     36.21455676	     10.94580642	     -7.79596150
      0.97000000	      4.63042010	     -9.03758004	      9.08994705	     -0.11630840	      1.03554614	      0.01372116	      6.12163031	     -8.60418103	     11.37803879	     -2.28986864	      1.47827290	     -2.03151453	     34.65594779	     15.16163143	     13.06797418	     49.70826287	     43.51338112	      7.64029491	     19.95186274	      3.43043981	    -15.02034529	     -1.90501692	      2.06270474	    -15.89827625	     -5.42286732	     47.27404946	      7.72936574	     -2.97974131	     60.77604968	     31.24887454	      9.22644885	     -7.42145161
      0.98000000	      4.72142465	     -8.91783283	      9.30475262	     -0.11618765	      1.03597124	      0.01358019	      6.10554739	     -8.74572306	     11.47675088	     -2.51531579	      1.70864335	     -2.02608805	     34.84448009	     15.43451478	     12.92053865	     49.66442579	     43.53186466	      7.61815941	     19.91917834	      3.46384243	    -15.19529055	     -1.96113302	      2.23288477	    -15.89961290	     -5.47898134	     47.15702889	      8.06271254	     -3.08517124	     61.14617902	     31.17442186	      9.15606539	     -7.47059488
      0.99000000	      4.70300024	     -8.88854698	      8.99678575	     -0.11570234	      1.03643329	      0.01343278	      6.10537367	     -8.92813696	     11.68907781	     -2.84469336	      2.10047999	     -2.05659276	     35.12915429	     16.01372415	     12.63417846	     49.75370988	     43.55869288	      7.57870307	     19.84817509	      3.45218016	    -15.39914275	     -1.99138155	      2.52764662	    -15.69811860	     -5.54926548	     47.18569445	      8.63077870	     -2.96155658	     61.61874534	     30.88300104	      8.86794110	     -7.47194727
